<svg width="61" height="80" viewBox="0 0 61 80" fill="none" xmlns="http://www.w3.org/2000/svg">
<path d="M0.690178 78.7437L0.862425 79.508C1.06174 79.7049 1.33022 79.8141 1.60966 79.8112C1.88846 79.8089 2.15509 79.6945 2.35013 79.4935C2.54639 79.2937 2.57231 77.1487 2.56983 76.8676C2.56741 76.5864 2.62115 76.1938 2.62115 76.1938C2.19249 61.3261 9.7858 51.8124 17.6707 45.9718C19.2935 46.7458 20.9843 47.3679 22.7209 47.83C37.4488 51.8675 55.0788 48.2939 59.1812 42.5348C61.2385 39.646 60.345 37.6329 59.6292 36.6903C56.1738 32.1385 42.5133 32.3119 29.7962 37.0675L29.7956 37.0681C25.4267 38.6611 21.2711 40.7942 17.4244 43.4191C14.992 41.9916 12.9258 39.9525 12.6715 37.1013C12.0722 30.3873 21.8863 27.2013 31.3776 24.1206C40.3938 21.1937 48.9099 18.4286 49.5986 12.4395C50.6497 3.29753 35.1689 0.635238 34.5097 0.525613C34.4529 0.516387 34.3954 0.511459 34.3379 0.511459C33.7907 0.512691 33.3351 0.936002 33.2911 1.48484C33.2464 2.0343 33.628 2.52591 34.1685 2.61512C34.3104 2.6385 48.3304 5.04918 47.509 12.1964C46.9765 16.8326 38.7179 19.5133 30.7314 22.1062C20.4539 25.4423 9.82759 28.8922 10.5758 37.2907C10.8418 40.2706 12.5399 42.7983 15.5623 44.7813V44.7819C10.728 48.4145 6.83537 53.1682 4.21651 58.6379C1.59765 64.1083 0.155658 70.1478 0.345222 76.217C0.345222 76.217 0.529013 78.0054 0.690178 78.7437ZM30.5292 39.053C42.9171 34.4187 55.4465 34.6685 57.9558 37.9763C58.1965 38.2925 58.9278 39.2555 57.4697 41.3018C54.785 45.0735 45.6067 47.3636 36.1183 47.3636C31.7866 47.4017 27.4684 46.872 23.2726 45.7872C22.0539 45.4568 20.8585 45.0446 19.6943 44.5535C23.0904 42.3194 26.7244 40.4743 30.5284 39.0529L30.5292 39.053Z" fill="#E7332B"/>
</svg>
