<svg width="16" height="17" viewBox="0 0 16 17" fill="none" xmlns="http://www.w3.org/2000/svg">
<path fill-rule="evenodd" clip-rule="evenodd" d="M5.79442 6.3571H8.67492V7.7919C9.08982 6.9667 10.1539 6.2252 11.7523 6.2252C14.8166 6.2252 15.5441 7.8679 15.5441 10.8817V16.4635H12.4418V11.5681C12.4418 9.8518 12.0269 8.8839 10.9705 8.8839C9.50552 8.8839 8.89672 9.927 8.89672 11.5673V16.4635H5.79442V6.3571ZM0.474815 16.3316H3.57712V6.2252H0.474815V16.3316ZM4.02151 2.9298C4.02161 3.1899 3.97002 3.4473 3.86972 3.6873C3.76952 3.9272 3.62252 4.1448 3.43752 4.3274C3.06242 4.7002 2.55472 4.9088 2.02592 4.9075C1.49812 4.9072 0.991615 4.6991 0.615915 4.3282C0.431515 4.1449 0.285116 3.9271 0.185016 3.6871C0.0849157 3.4472 0.0332148 3.1898 0.0327148 2.9298C0.0327148 2.4048 0.242115 1.9022 0.616715 1.5315C0.992015 1.1601 1.49872 0.951919 2.02672 0.952149C2.55562 0.952149 3.06292 1.1608 3.43752 1.5315C3.81132 1.9022 4.02151 2.4048 4.02151 2.9298Z" fill="white"/>
</svg>
