<svg width="182" height="20" viewBox="0 0 182 20" fill="none" xmlns="http://www.w3.org/2000/svg">
<path d="M179.787 0.014473C178.51 0.014473 177.658 0.674456 177.658 1.66615C177.658 6.12471 175.743 9.26228 171.913 11.7385C155.955 21.8109 108.081 13.8854 69.7811 7.44564C33.3958 1.3365 10.8425 -1.9668 2.96989 2.82229C1.05526 3.9787 0.203369 5.62919 0.203369 7.44564C0.203369 8.43621 1.05382 9.09736 2.33172 9.09736C3.60814 9.09736 4.46007 8.43736 4.46007 7.44564C4.46007 6.61983 4.88604 5.95984 5.73649 5.46457C12.3321 1.33656 41.0574 6.12455 68.9305 10.749C95.315 15.0419 123.826 19.8309 145.529 19.8309C157.87 19.8309 168.083 18.3451 174.466 14.2171C179.36 11.2456 181.701 6.95154 181.701 1.66828C181.914 0.67543 181.063 0.0142975 179.786 0.0142975L179.787 0.014473Z" fill="#E7332B"/>
</svg>
