<svg width="118" height="19" viewBox="0 0 118 19" fill="none" xmlns="http://www.w3.org/2000/svg">
<path d="M4.34223 15.7242V15.6861L13.4748 2.46194V0.0309448H0.79975V2.8565H9.39215V2.90742L0.397766 16.0807V18.5498H13.5125V15.7242H4.34223ZM24.881 5.8348V11.9186C24.881 12.5805 24.7931 13.1914 24.6172 13.726C24.4414 14.2606 24.2027 14.706 23.9013 15.0369C23.5997 15.3806 23.248 15.6479 22.8711 15.8261C22.4818 16.0042 22.0798 16.0934 21.6526 16.0934C21.2004 16.0934 20.8361 16.0424 20.5346 15.9407C20.2332 15.8388 19.9693 15.6479 19.7684 15.3934C19.5548 15.1388 19.4041 14.8079 19.3035 14.3751C19.2031 13.9551 19.1654 13.4205 19.1654 12.7841V5.8348H16.2887V13.5733C16.2887 14.5024 16.4018 15.3042 16.6278 15.9788C16.854 16.6534 17.168 17.188 17.5952 17.5825C18.0222 17.9898 18.5121 18.2825 19.0649 18.4735C19.6176 18.6644 20.2582 18.7535 20.9743 18.7535C21.7155 18.7535 22.419 18.6008 23.0973 18.2825C23.7631 17.9643 24.3409 17.5062 24.8434 16.8953H24.881V18.5498H27.7578V5.8348H24.881ZM38.2219 5.64388C37.4556 5.64388 36.7396 5.8348 36.0612 6.19117C35.3829 6.54755 34.8051 7.06939 34.3151 7.74396H34.2775V5.8348H31.4008V18.5498H34.2775V12.5169C34.2775 11.8296 34.4031 11.2059 34.6668 10.6586C34.9306 10.1114 35.3201 9.67858 35.8477 9.34765C36.3753 9.02947 36.9908 8.864 37.7069 8.864C37.9582 8.864 38.2471 8.87673 38.5737 8.90219V5.65661C38.4983 5.65661 38.3852 5.64388 38.2219 5.64388ZM42.6186 3.93837C42.9578 3.93837 43.2719 3.86199 43.5733 3.68381C43.8748 3.50562 44.1134 3.27652 44.2894 2.97105C44.4653 2.67832 44.5532 2.36012 44.5532 2.00374C44.5532 1.48191 44.3522 1.02371 43.9753 0.641878C43.5985 0.260048 43.1462 0.0691278 42.6186 0.0691278C42.0659 0.0691278 41.6136 0.260048 41.2369 0.641878C40.86 1.02371 40.6715 1.46918 40.6715 2.00374C40.6715 2.53831 40.86 2.99651 41.2369 3.37834C41.6136 3.76017 42.0659 3.93837 42.6186 3.93837ZM41.1614 18.5498H44.0381V5.8348H41.1614V18.5498ZM59.0497 18.5498H62.1526V2.8565H67.3909V0.0309448H53.8616V2.8565H59.0497V18.5498ZM79.2242 12.0459C79.2242 10.8241 78.973 9.71676 78.4831 8.74945C77.9806 7.78215 77.2771 7.03121 76.3476 6.47119C75.418 5.92389 74.3377 5.64388 73.1317 5.64388C72.265 5.64388 71.461 5.80934 70.7072 6.12754C69.9535 6.44573 69.3003 6.8912 68.7601 7.45122C68.2074 8.02397 67.7803 8.71127 67.4788 9.52585C67.1647 10.3404 67.014 11.2313 67.014 12.1859C67.014 13.4841 67.2903 14.6424 67.8557 15.6479C68.4084 16.6534 69.1746 17.417 70.1545 17.9516C71.1218 18.4862 72.2147 18.7535 73.4332 18.7535C74.6015 18.7535 75.6316 18.5371 76.5234 18.1043C77.4154 17.6716 78.1439 17.0861 78.7218 16.348L76.7119 14.6042C75.9204 15.6097 74.8779 16.1061 73.5839 16.1061C72.6543 16.1061 71.8755 15.8515 71.2348 15.3297C70.5942 14.8206 70.1797 14.1079 70.0038 13.2041H79.1489C79.1991 12.8987 79.2242 12.5169 79.2242 12.0459ZM73.2825 8.29126C73.8101 8.29126 74.2874 8.40581 74.7145 8.62218C75.1417 8.83854 75.4808 9.13128 75.7446 9.51312C76.0083 9.8949 76.2094 10.3404 76.335 10.8496H70.0541C70.255 10.035 70.6444 9.4113 71.2223 8.96582C71.8002 8.52035 72.4785 8.29126 73.2825 8.29126ZM91.422 5.8348V7.36213H91.3717C90.417 6.21663 89.1231 5.64388 87.4901 5.64388C86.6358 5.64388 85.8319 5.80934 85.0907 6.14027C84.337 6.47119 83.6963 6.92938 83.1687 7.50213C82.6285 8.08761 82.2015 8.78764 81.8999 9.60221C81.5859 10.4295 81.4352 11.3077 81.4352 12.2496C81.4352 13.026 81.5231 13.7514 81.7241 14.4387C81.9251 15.1261 82.2015 15.7242 82.5657 16.2461C82.9301 16.768 83.3571 17.2134 83.8597 17.5952C84.3621 17.9771 84.9148 18.2698 85.543 18.4608C86.171 18.6644 86.8243 18.7535 87.5152 18.7535C89.2236 18.7535 90.5552 18.1171 91.5099 16.8443H91.5475V18.5498H94.2987V5.8348H91.422ZM87.9674 16.1061C86.8996 16.1061 86.0329 15.7497 85.3671 15.0369C84.6887 14.3242 84.3621 13.3951 84.3621 12.2623C84.3621 11.6769 84.45 11.1296 84.6385 10.6204C84.8269 10.1114 85.0907 9.69131 85.4173 9.36038C85.744 9.02947 86.1208 8.76218 86.5605 8.57126C87.0002 8.39308 87.4775 8.29126 87.98 8.29126C88.9975 8.29126 89.8392 8.67309 90.5175 9.43676C91.1958 10.2004 91.535 11.1423 91.535 12.2623C91.535 13.3951 91.1833 14.3242 90.4924 15.0369C89.8014 15.7497 88.9598 16.1061 87.9674 16.1061ZM113.054 5.64388C112.124 5.64388 111.27 5.8348 110.504 6.19117C109.724 6.54755 109.084 7.06939 108.557 7.75669H108.507C107.753 6.35664 106.509 5.64388 104.763 5.64388C104.022 5.64388 103.306 5.82207 102.627 6.15299C101.949 6.48391 101.346 6.96757 100.843 7.59123H100.806V5.8348H97.9291V18.5498H100.806V12.2114C100.806 11.0023 101.082 10.0477 101.647 9.34765C102.213 8.64763 102.941 8.29126 103.821 8.29126C105.479 8.29126 106.32 9.51312 106.32 11.9313V18.5625H109.197V12.2114C109.197 11.0023 109.474 10.0477 110.027 9.34765C110.579 8.64763 111.282 8.29126 112.124 8.29126C113.757 8.29126 114.587 9.51312 114.587 11.9313V18.5625H117.463V11.1932C117.463 9.33492 117.074 7.9476 116.32 7.0312C115.554 6.11481 114.46 5.64388 113.054 5.64388Z" fill="#514949"/>
</svg>
